<?xml version="1.0" encoding="utf-8" standalone="no"?>
<!DOCTYPE svg PUBLIC "-//W3C//DTD SVG 1.1//EN"
  "http://www.w3.org/Graphics/SVG/1.1/DTD/svg11.dtd">
<!-- Created with matplotlib (https://matplotlib.org/) -->
<svg height="345.6pt" version="1.1" viewBox="0 0 460.8 345.6" width="460.8pt" xmlns="http://www.w3.org/2000/svg" xmlns:xlink="http://www.w3.org/1999/xlink">
 <defs>
  <style type="text/css">
*{stroke-linecap:butt;stroke-linejoin:round;}
  </style>
 </defs>
 <g id="figure_1">
  <g id="patch_1">
   <path d="M 0 345.6 
L 460.8 345.6 
L 460.8 0 
L 0 0 
z
" style="fill:#ffffff;"/>
  </g>
  <g id="axes_1">
   <g id="LineCollection_1">
    <path clip-path="url(#p7daf2603d5)" d="M 335.107594 15.73533 
L 230.4 120.44511 
" style="fill:none;stroke:#000000;"/>
    <path clip-path="url(#p7daf2603d5)" d="M 335.107594 15.73533 
L 439.815188 120.44511 
" style="fill:none;stroke:#000000;"/>
    <path clip-path="url(#p7daf2603d5)" d="M 230.4 120.44511 
L 20.984812 225.15489 
" style="fill:none;stroke:#000000;"/>
    <path clip-path="url(#p7daf2603d5)" d="M 230.4 120.44511 
L 230.4 225.15489 
" style="fill:none;stroke:#000000;"/>
    <path clip-path="url(#p7daf2603d5)" d="M 230.4 225.15489 
L 20.984812 329.86467 
" style="fill:none;stroke:#000000;"/>
    <path clip-path="url(#p7daf2603d5)" d="M 230.4 225.15489 
L 230.4 329.86467 
" style="fill:none;stroke:#000000;"/>
    <path clip-path="url(#p7daf2603d5)" d="M 439.815188 120.44511 
L 439.815188 225.15489 
" style="fill:none;stroke:#000000;"/>
    <path clip-path="url(#p7daf2603d5)" d="M 439.815188 225.15489 
L 439.815188 329.86467 
" style="fill:none;stroke:#000000;"/>
   </g>
   <g id="PathCollection_1">
    <defs>
     <path d="M 0 8.660254 
C 2.296726 8.660254 4.499694 7.747755 6.123724 6.123724 
C 7.747755 4.499694 8.660254 2.296726 8.660254 0 
C 8.660254 -2.296726 7.747755 -4.499694 6.123724 -6.123724 
C 4.499694 -7.747755 2.296726 -8.660254 0 -8.660254 
C -2.296726 -8.660254 -4.499694 -7.747755 -6.123724 -6.123724 
C -7.747755 -4.499694 -8.660254 -2.296726 -8.660254 0 
C -8.660254 2.296726 -7.747755 4.499694 -6.123724 6.123724 
C -4.499694 7.747755 -2.296726 8.660254 0 8.660254 
z
" id="mdb575cec67" style="stroke:#ff0000;"/>
    </defs>
    <g clip-path="url(#p7daf2603d5)">
     <use style="fill:#ff0000;stroke:#ff0000;" x="335.107594" xlink:href="#mdb575cec67" y="15.73533"/>
     <use style="fill:#ff0000;stroke:#ff0000;" x="230.4" xlink:href="#mdb575cec67" y="120.44511"/>
     <use style="fill:#ff0000;stroke:#ff0000;" x="20.984812" xlink:href="#mdb575cec67" y="225.15489"/>
     <use style="fill:#ff0000;stroke:#ff0000;" x="230.4" xlink:href="#mdb575cec67" y="225.15489"/>
     <use style="fill:#ff0000;stroke:#ff0000;" x="20.984812" xlink:href="#mdb575cec67" y="329.86467"/>
     <use style="fill:#ff0000;stroke:#ff0000;" x="230.4" xlink:href="#mdb575cec67" y="329.86467"/>
     <use style="fill:#ff0000;stroke:#ff0000;" x="439.815188" xlink:href="#mdb575cec67" y="120.44511"/>
     <use style="fill:#ff0000;stroke:#ff0000;" x="439.815188" xlink:href="#mdb575cec67" y="225.15489"/>
     <use style="fill:#ff0000;stroke:#ff0000;" x="439.815188" xlink:href="#mdb575cec67" y="329.86467"/>
    </g>
   </g>
  </g>
 </g>
 <defs>
  <clipPath id="p7daf2603d5">
   <rect height="345.6" width="460.8" x="0" y="0"/>
  </clipPath>
 </defs>
</svg>
